<svg t="1718436700934" class="icon" viewBox="0 0 1024 1024" version="1.1" xmlns="http://www.w3.org/2000/svg" p-id="1519" width="64" height="64"><path d="M1024 624.6c0-149.9-142.3-271.8-317.2-271.8s-317.2 122-317.2 271.8c0 149.9 142.3 271.8 317.2 271.8 30.4 0 60.5-3.7 89.4-10.9 7.9 1.1 30.2 13 43.7 20.2 29.4 15.6 49.6 25.8 65.9 25.8 5.2 0 9.9-1 14.4-3.2 24.9-12.1 15-43.1 5.5-73.1-2.5-8-6.5-20.4-7.8-27.7C985.5 776 1024 702.4 1024 624.6z m-137.5 173c-19.4 14.1-11.1 40.2-1.5 70.5 1.3 4.2 3 9.5 4.5 14.7-9.7-4.4-21.1-10.5-29.4-14.9-29.3-15.6-48.5-25.3-64.3-25.3-3 0-5.8 0.3-8.6 1.1-25.9 6.6-52.9 10-80.3 10-151.3 0-274.3-102.7-274.3-229s123.1-229 274.3-229 274.3 102.7 274.3 229c-0.1 66.3-34.6 129.3-94.7 172.9z" p-id="1520" fill="#515151"></path><path d="M379.1 621.5c0-150.7 146.6-273.7 326.7-274.1 6.9 0 13.4-3.4 17.4-9 4-5.7 5-12.9 2.8-19.4-22.4-64.5-69.6-122.4-132.7-163-64.6-41.5-141.5-63.5-222.6-63.5C166.3 92.5 0 234.8 0 409.7c0 91.4 45.7 177.7 125.5 238-1.2 8.5-6.4 25-9.7 35.5-11.2 35.4-21.8 68.9 4.5 81.7 4.8 2.3 9.8 3.4 15.4 3.4 18.3 0 41.7-11.8 76-30 16.8-8.9 44.7-23.7 53.7-24.3 34.1 8.6 69.5 13 105.4 13h1.3c6.9 0 13.5-3.4 17.5-9 4-5.7 5-12.9 2.8-19.5-8.8-25.2-13.3-51-13.3-77z m-42.8 0c0 20.7 2.4 41.3 7 61.5-23.2-1.6-46.1-5.3-68.3-11-19.4-5-44.3 7.5-83.4 28.3-12.1 6.4-29.7 15.8-42.5 21 2.1-8.3 5.3-18.2 7.5-25.3 10.9-34.4 20.3-64-0.4-79-72-52.2-113.3-127.8-113.3-207.3 0-151.3 147.1-274.3 327.9-274.3 133.2 0 253.5 68.8 303.4 170.4-189 14.1-337.9 150.5-337.9 315.7z" p-id="1521" fill="#515151"></path><path d="M249.9 305.3m-42.9 0a42.9 42.9 0 1 0 85.8 0 42.9 42.9 0 1 0-85.8 0Z" p-id="1522" fill="#515151"></path><path d="M493.9 305.3m-42.9 0a42.9 42.9 0 1 0 85.8 0 42.9 42.9 0 1 0-85.8 0Z" p-id="1523" fill="#515151"></path><path d="M614.9 548.2m-34.3 0a34.3 34.3 0 1 0 68.6 0 34.3 34.3 0 1 0-68.6 0Z" p-id="1524" fill="#515151"></path><path d="M806.7 548.2m-34.3 0a34.3 34.3 0 1 0 68.6 0 34.3 34.3 0 1 0-68.6 0Z" p-id="1525" fill="#515151"></path></svg>
