<svg t="1719281021309" class="icon" viewBox="0 0 1024 1024" version="1.1" xmlns="http://www.w3.org/2000/svg" p-id="12500" width="32" height="32"><path d="M381.17 147.067c-174.073 0-316.826 118.585-316.826 269.392 0 86.816 47.435 158.415 126.643 213.903l-31.773 95.318 110.976-55.488c39.83 7.605 71.155 15.662 110.98 15.662 9.846 0 19.692-0.449 29.536-1.345-6.265-21.031-9.845-43.406-9.845-66.229 0-138.276 119.033-250.596 269.391-250.596 10.294 0 20.586 0.896 30.432 1.788-27.3-127.535-163.784-222.405-319.514-222.405zM275.125 361.85c-25.367 0-45.931-18.125-45.931-40.484s20.564-40.484 45.931-40.484 45.931 18.125 45.931 40.484-20.564 40.484-45.931 40.484z m221.781 0c-25.367 0-45.931-18.125-45.931-40.484s20.564-40.484 45.931-40.484c25.367 0 45.931 18.125 45.931 40.484s-20.564 40.484-45.931 40.484z" fill="#333333" p-id="12501"></path><path d="M959.333 614.699c0-126.643-126.642-230.014-268.943-230.014-150.805 0-269.39 103.372-269.39 230.014 0 127.09 118.585 230.013 269.391 230.013 31.773 0 63.545-8.053 94.87-15.662l86.813 47.883-23.715-79.208c63.539-48.33 110.974-111.427 110.974-183.026z m-352.625-40.092c-19.742 0-35.745-14.106-35.745-31.506 0-17.401 16.004-31.506 35.745-31.506 19.742 0 35.745 14.106 35.745 31.506 0.001 17.4-16.003 31.506-35.745 31.506z m174.803 0c-19.742 0-35.745-14.106-35.745-31.506 0-17.401 16.004-31.506 35.745-31.506 19.742 0 35.745 14.106 35.745 31.506 0.001 17.4-16.003 31.506-35.745 31.506z" fill="#333333" p-id="12502"></path></svg>